<mxfile host="app.diagrams.net" modified="2023-06-27T12:17:22.207Z" agent="Mozilla/5.0 (Windows NT 10.0; Win64; x64) AppleWebKit/537.36 (KHTML, like Gecko) Chrome/114.0.0.0 Safari/537.36" version="21.5.0" etag="l3Q4FyFphwp0QTUHXz_t" type="github">
  <diagram name="第 1 页" id="P6MMy8REn1qfdok3NRzG">
    <mxGraphModel>
      <root>
        <mxCell id="0" />
        <mxCell id="1" parent="0" />
      </root>
    </mxGraphModel>
  </diagram>
</mxfile>
